<?xml version="1.0" encoding="UTF-8"?><svg id="Warstwa_2" xmlns="http://www.w3.org/2000/svg" viewBox="0 0 402.56 141.73"><defs><style>.cls-1{fill:#cad6e9;}.cls-2{fill:#748bd8;}</style></defs><g id="Warstwa_1-2"><g id="bw-filed"><polygon class="cls-2" points="40.69 112.07 53.56 93 70.73 135.38 85.75 126.9 72.83 141.73 53.56 107.83 36.4 122.66 0 70.87 40.69 112.07"/><g><polygon class="cls-1" points="40.69 29.66 53.56 48.74 70.73 6.36 85.75 14.83 72.83 0 53.56 33.9 36.4 19.07 0 70.87 40.69 29.66"/><polygon class="cls-2" points="0 70.87 106.3 70.87 85.75 14.83 70.73 6.36 53.56 48.74 40.69 29.66 0 70.87"/></g></g><g><path class="cls-1" d="M137.21,44.74v53.28h-12.98V44.74h12.98Z"/><path class="cls-1" d="M147.36,57.23c2.28-4.12,5.45-7.34,9.52-9.64,4.07-2.3,8.69-3.45,13.85-3.45,6.32,0,11.74,1.67,16.24,5.01,4.5,3.34,7.51,7.89,9.03,13.66h-14.27c-1.06-2.23-2.57-3.92-4.52-5.09-1.95-1.16-4.16-1.75-6.64-1.75-4,0-7.24,1.39-9.71,4.17-2.48,2.78-3.72,6.5-3.72,11.16s1.24,8.38,3.72,11.16c2.48,2.78,5.72,4.17,9.71,4.17,2.48,0,4.69-.58,6.64-1.75,1.95-1.16,3.45-2.86,4.52-5.09h14.27c-1.52,5.77-4.53,10.31-9.03,13.62-4.5,3.31-9.92,4.97-16.24,4.97-5.16,0-9.78-1.15-13.85-3.45-4.07-2.3-7.25-5.5-9.52-9.6-2.28-4.1-3.42-8.78-3.42-14.04s1.14-9.95,3.42-14.08Z"/><path class="cls-1" d="M215.59,55.14v10.78h17.38v10.02h-17.38v11.69h19.66v10.4h-32.63V44.74h32.63v10.4h-19.66Z"/><path class="cls-1" d="M259.05,59c2.16-1.15,4.63-1.73,7.42-1.73,3.31,0,6.31,.84,9,2.52,2.69,1.68,4.81,4.08,6.37,7.2,1.56,3.12,2.34,6.74,2.34,10.87s-.78,7.76-2.34,10.91c-1.56,3.14-3.68,5.57-6.37,7.27-2.69,1.71-5.69,2.56-9,2.56-2.83,0-5.3-.56-7.42-1.69-2.11-1.13-3.77-2.63-4.97-4.5v5.62h-12.31V44.75h12.31v18.79c1.15-1.87,2.81-3.38,4.97-4.54Zm10.04,11.63c-1.7-1.75-3.8-2.63-6.3-2.63s-4.52,.89-6.23,2.66c-1.7,1.78-2.56,4.2-2.56,7.27s.85,5.5,2.56,7.27c1.7,1.78,3.78,2.66,6.23,2.66s4.54-.9,6.26-2.7c1.73-1.8,2.59-4.24,2.59-7.31s-.85-5.48-2.56-7.24Z"/><path class="cls-1" d="M327.39,80.89h-27.86c.19,2.5,1,4.4,2.41,5.72,1.42,1.32,3.16,1.98,5.22,1.98,3.07,0,5.21-1.3,6.41-3.89h13.1c-.67,2.64-1.88,5.02-3.64,7.13-1.75,2.11-3.95,3.77-6.59,4.97-2.64,1.2-5.59,1.8-8.86,1.8-3.94,0-7.44-.84-10.51-2.52-3.07-1.68-5.47-4.08-7.2-7.2s-2.59-6.77-2.59-10.94,.85-7.82,2.56-10.94c1.7-3.12,4.09-5.52,7.16-7.2,3.07-1.68,6.6-2.52,10.58-2.52s7.34,.82,10.37,2.45,5.39,3.96,7.09,6.98c1.7,3.02,2.56,6.55,2.56,10.58,0,1.15-.07,2.35-.22,3.6Zm-12.38-6.84c0-2.11-.72-3.79-2.16-5.04s-3.24-1.87-5.4-1.87-3.8,.6-5.22,1.8c-1.42,1.2-2.29,2.9-2.63,5.11h15.41Z"/><path class="cls-1" d="M350.66,59.33c2.16-1.27,4.56-1.91,7.2-1.91v13.03h-3.38c-3.07,0-5.38,.66-6.91,1.98-1.54,1.32-2.3,3.64-2.3,6.95v18.65h-12.31V57.85h12.31v6.7c1.44-2.21,3.24-3.95,5.4-5.22Z"/><path class="cls-1" d="M385.32,59c2.14,1.15,3.78,2.66,4.93,4.54v-5.69h12.31v40.1c0,3.7-.73,7.04-2.2,10.04-1.46,3-3.7,5.39-6.7,7.16-3,1.78-6.73,2.66-11.2,2.66-5.95,0-10.78-1.4-14.47-4.21-3.7-2.81-5.81-6.61-6.34-11.41h12.17c.38,1.54,1.3,2.75,2.74,3.64,1.44,.89,3.22,1.33,5.33,1.33,2.54,0,4.57-.73,6.08-2.2,1.51-1.46,2.27-3.8,2.27-7.02v-5.69c-1.2,1.87-2.86,3.4-4.97,4.57-2.11,1.18-4.58,1.76-7.42,1.76-3.31,0-6.31-.85-9-2.56-2.69-1.7-4.81-4.13-6.37-7.27-1.56-3.14-2.34-6.78-2.34-10.91s.78-7.75,2.34-10.87c1.56-3.12,3.68-5.52,6.37-7.2,2.69-1.68,5.69-2.52,9-2.52,2.83,0,5.32,.58,7.45,1.73Zm2.38,11.66c-1.7-1.77-3.78-2.66-6.23-2.66s-4.52,.88-6.23,2.63c-1.7,1.75-2.56,4.17-2.56,7.24s.85,5.51,2.56,7.31c1.7,1.8,3.78,2.7,6.23,2.7s4.52-.89,6.23-2.66c1.7-1.77,2.56-4.2,2.56-7.27s-.85-5.5-2.56-7.27Z"/></g></g></svg>